<mxfile host="65bd71144e">
    <diagram id="99oPlt2z29j_kFsxYzRW" name="Page-1">
        <mxGraphModel dx="2406" dy="1740" grid="1" gridSize="10" guides="1" tooltips="1" connect="1" arrows="1" fold="1" page="0" pageScale="1" pageWidth="850" pageHeight="1100" math="0" shadow="0">
            <root>
                <mxCell id="0"/>
                <mxCell id="1" parent="0"/>
                <mxCell id="2" value="API" style="rounded=1;whiteSpace=wrap;html=1;" vertex="1" parent="1">
                    <mxGeometry x="120" y="480" width="120" height="60" as="geometry"/>
                </mxCell>
                <mxCell id="3" value="API" style="rounded=1;whiteSpace=wrap;html=1;" vertex="1" parent="1">
                    <mxGeometry x="120" y="610" width="120" height="60" as="geometry"/>
                </mxCell>
                <mxCell id="4" value="API" style="rounded=1;whiteSpace=wrap;html=1;" vertex="1" parent="1">
                    <mxGeometry x="120" y="730" width="120" height="60" as="geometry"/>
                </mxCell>
                <mxCell id="5" value="" style="rounded=0;whiteSpace=wrap;html=1;dashed=1;fillColor=none;" vertex="1" parent="1">
                    <mxGeometry x="35" y="435" width="290" height="400" as="geometry"/>
                </mxCell>
                <mxCell id="6" value="app serv [n]" style="rounded=0;whiteSpace=wrap;html=1;" vertex="1" parent="1">
                    <mxGeometry x="260" y="415" width="80" height="30" as="geometry"/>
                </mxCell>
                <mxCell id="7" value="Host: Debian" style="rounded=1;whiteSpace=wrap;html=1;" vertex="1" parent="1">
                    <mxGeometry x="30" y="345" width="295" height="60" as="geometry"/>
                </mxCell>
                <mxCell id="8" value="&lt;div&gt;API &lt;br&gt;&lt;/div&gt;&lt;div&gt;Gateway&lt;br&gt;&lt;/div&gt;" style="rounded=0;whiteSpace=wrap;html=1;" vertex="1" parent="1">
                    <mxGeometry x="440" y="575" width="120" height="180" as="geometry"/>
                </mxCell>
                <mxCell id="9" value="" style="rounded=0;whiteSpace=wrap;html=1;dashed=1;fillColor=none;" vertex="1" parent="1">
                    <mxGeometry x="-370" y="540" width="290" height="130" as="geometry"/>
                </mxCell>
                <mxCell id="10" value="&lt;div&gt;key-value&lt;/div&gt;&lt;div&gt;store&lt;br&gt;&lt;/div&gt;" style="shape=cylinder3;whiteSpace=wrap;html=1;boundedLbl=1;backgroundOutline=1;size=15;" vertex="1" parent="1">
                    <mxGeometry x="-240" y="560" width="70" height="100" as="geometry"/>
                </mxCell>
                <mxCell id="11" value="Redis?" style="rounded=0;whiteSpace=wrap;html=1;" vertex="1" parent="1">
                    <mxGeometry x="-530" y="560" width="120" height="60" as="geometry"/>
                </mxCell>
                <mxCell id="12" value="&lt;div&gt;key-value&lt;/div&gt;&lt;div&gt;store&lt;br&gt;&lt;/div&gt;" style="shape=cylinder3;whiteSpace=wrap;html=1;boundedLbl=1;backgroundOutline=1;size=15;" vertex="1" parent="1">
                    <mxGeometry x="-240" y="720" width="70" height="100" as="geometry"/>
                </mxCell>
                <mxCell id="13" value="&lt;div&gt;key-value&lt;/div&gt;&lt;div&gt;store&lt;br&gt;&lt;/div&gt;" style="shape=cylinder3;whiteSpace=wrap;html=1;boundedLbl=1;backgroundOutline=1;size=15;" vertex="1" parent="1">
                    <mxGeometry x="-240" y="380" width="70" height="100" as="geometry"/>
                </mxCell>
                <mxCell id="14" value="&lt;div&gt;multi-nodes:&lt;/div&gt;&lt;div&gt;- for 300TB data&lt;/div&gt;&lt;div&gt;- multi-nodes for data sharding (reliability, quicker access)&lt;br&gt;&lt;/div&gt;" style="rounded=0;whiteSpace=wrap;html=1;" vertex="1" parent="1">
                    <mxGeometry x="-650" y="420" width="240" height="100" as="geometry"/>
                </mxCell>
                <mxCell id="15" value="" style="rounded=0;whiteSpace=wrap;html=1;dashed=1;fillColor=none;" vertex="1" parent="1">
                    <mxGeometry x="-370" y="360" width="290" height="130" as="geometry"/>
                </mxCell>
                <mxCell id="16" value="" style="rounded=0;whiteSpace=wrap;html=1;dashed=1;fillColor=none;" vertex="1" parent="1">
                    <mxGeometry x="-370" y="710" width="290" height="120" as="geometry"/>
                </mxCell>
                <mxCell id="17" value="db serv1" style="rounded=0;whiteSpace=wrap;html=1;" vertex="1" parent="1">
                    <mxGeometry x="-150" y="350" width="80" height="30" as="geometry"/>
                </mxCell>
                <mxCell id="18" value="db serv2" style="rounded=0;whiteSpace=wrap;html=1;" vertex="1" parent="1">
                    <mxGeometry x="-150" y="520" width="80" height="30" as="geometry"/>
                </mxCell>
                <mxCell id="19" value="db serv3" style="rounded=0;whiteSpace=wrap;html=1;" vertex="1" parent="1">
                    <mxGeometry x="-150" y="700" width="80" height="30" as="geometry"/>
                </mxCell>
                <mxCell id="20" value="Host: krakenD" style="rounded=0;whiteSpace=wrap;html=1;" vertex="1" parent="1">
                    <mxGeometry x="440" y="480" width="120" height="60" as="geometry"/>
                </mxCell>
                <mxCell id="21" value="RDBS&lt;br&gt;(postgres)" style="shape=cylinder3;whiteSpace=wrap;html=1;boundedLbl=1;backgroundOutline=1;size=15;" vertex="1" parent="1">
                    <mxGeometry x="-245" y="980" width="80" height="90" as="geometry"/>
                </mxCell>
                <mxCell id="22" value="user creds" style="rounded=0;whiteSpace=wrap;html=1;" vertex="1" parent="1">
                    <mxGeometry x="-560" y="995" width="120" height="60" as="geometry"/>
                </mxCell>
                <mxCell id="23" value="" style="endArrow=classic;html=1;exitX=1;exitY=0.5;exitDx=0;exitDy=0;entryX=0;entryY=0.5;entryDx=0;entryDy=0;entryPerimeter=0;" edge="1" parent="1" source="22" target="21">
                    <mxGeometry width="50" height="50" relative="1" as="geometry">
                        <mxPoint x="-360" y="1050" as="sourcePoint"/>
                        <mxPoint x="-310" y="1000" as="targetPoint"/>
                    </mxGeometry>
                </mxCell>
                <mxCell id="24" value="...or some self-hosted&lt;br&gt;password vaulting solution" style="rounded=0;whiteSpace=wrap;html=1;" vertex="1" parent="1">
                    <mxGeometry x="-560" y="1080" width="160" height="60" as="geometry"/>
                </mxCell>
                <mxCell id="26" value="Concern:&lt;br&gt;container orchestration" style="rounded=1;whiteSpace=wrap;html=1;align=left;" vertex="1" parent="1">
                    <mxGeometry x="30" y="200" width="200" height="60" as="geometry"/>
                </mxCell>
                <mxCell id="27" value="Concern:&lt;br&gt;IaC (deploying databases)" style="rounded=1;whiteSpace=wrap;html=1;align=left;" vertex="1" parent="1">
                    <mxGeometry x="-370" y="200" width="200" height="60" as="geometry"/>
                </mxCell>
                <mxCell id="28" value="Concern:&lt;br&gt;container image proxy" style="rounded=1;whiteSpace=wrap;html=1;align=left;" vertex="1" parent="1">
                    <mxGeometry x="30" y="130" width="200" height="60" as="geometry"/>
                </mxCell>
                <mxCell id="29" value="" style="endArrow=classic;html=1;strokeWidth=3;" edge="1" parent="1">
                    <mxGeometry width="50" height="50" relative="1" as="geometry">
                        <mxPoint x="80" y="1170" as="sourcePoint"/>
                        <mxPoint x="80" y="1000" as="targetPoint"/>
                        <Array as="points">
                            <mxPoint x="80" y="1090"/>
                        </Array>
                    </mxGeometry>
                </mxCell>
                <mxCell id="30" value="&lt;b&gt;SDLC&lt;/b&gt;" style="text;html=1;strokeColor=none;fillColor=none;align=center;verticalAlign=middle;whiteSpace=wrap;rounded=0;strokeWidth=3;" vertex="1" parent="1">
                    <mxGeometry x="127.5" y="1070" width="132.5" height="40" as="geometry"/>
                </mxCell>
                <mxCell id="31" value="Dev" style="rounded=0;whiteSpace=wrap;html=1;strokeWidth=1;" vertex="1" parent="1">
                    <mxGeometry x="-280" y="1320" width="120" height="60" as="geometry"/>
                </mxCell>
                <mxCell id="32" value="Test" style="rounded=0;whiteSpace=wrap;html=1;strokeWidth=1;" vertex="1" parent="1">
                    <mxGeometry x="-80" y="1320" width="120" height="60" as="geometry"/>
                </mxCell>
                <mxCell id="33" value="Prod" style="rounded=0;whiteSpace=wrap;html=1;strokeWidth=1;" vertex="1" parent="1">
                    <mxGeometry x="100" y="1160" width="120" height="60" as="geometry"/>
                </mxCell>
                <mxCell id="34" value="threat modeling" style="rounded=1;whiteSpace=wrap;html=1;strokeWidth=1;" vertex="1" parent="1">
                    <mxGeometry x="-495" y="1410" width="120" height="60" as="geometry"/>
                </mxCell>
                <mxCell id="35" value="SAST" style="rounded=1;whiteSpace=wrap;html=1;strokeWidth=1;" vertex="1" parent="1">
                    <mxGeometry x="-285" y="1420" width="120" height="60" as="geometry"/>
                </mxCell>
                <mxCell id="36" value="SCA" style="rounded=1;whiteSpace=wrap;html=1;strokeWidth=1;" vertex="1" parent="1">
                    <mxGeometry x="-285" y="1510" width="120" height="60" as="geometry"/>
                </mxCell>
                <mxCell id="37" value="Threat: DDOS/rate limiting" style="rounded=1;whiteSpace=wrap;html=1;strokeWidth=1;" vertex="1" parent="1">
                    <mxGeometry x="390" y="-50" width="170" height="60" as="geometry"/>
                </mxCell>
                <mxCell id="38" value="" style="sketch=0;outlineConnect=0;fontColor=#232F3E;gradientColor=none;fillColor=#BF0816;strokeColor=none;dashed=0;verticalLabelPosition=bottom;verticalAlign=top;align=center;html=1;fontSize=12;fontStyle=0;aspect=fixed;pointerEvents=1;shape=mxgraph.aws4.waf_bad_bot;strokeWidth=1;" vertex="1" parent="1">
                    <mxGeometry x="370" y="-75" width="39.55" height="36" as="geometry"/>
                </mxCell>
                <mxCell id="39" value="&lt;div&gt;Web UI&lt;/div&gt;" style="rounded=0;whiteSpace=wrap;html=1;" vertex="1" parent="1">
                    <mxGeometry x="650" y="575" width="120" height="105" as="geometry"/>
                </mxCell>
                <mxCell id="40" value="Threat: SSRF" style="rounded=1;whiteSpace=wrap;html=1;strokeWidth=1;" vertex="1" parent="1">
                    <mxGeometry x="390" y="-145" width="170" height="60" as="geometry"/>
                </mxCell>
                <mxCell id="41" value="" style="sketch=0;outlineConnect=0;fontColor=#232F3E;gradientColor=none;fillColor=#BF0816;strokeColor=none;dashed=0;verticalLabelPosition=bottom;verticalAlign=top;align=center;html=1;fontSize=12;fontStyle=0;aspect=fixed;pointerEvents=1;shape=mxgraph.aws4.waf_bad_bot;strokeWidth=1;" vertex="1" parent="1">
                    <mxGeometry x="370" y="-170" width="39.55" height="36" as="geometry"/>
                </mxCell>
                <mxCell id="42" value="&lt;div&gt;Web UI&lt;/div&gt;" style="rounded=0;whiteSpace=wrap;html=1;" vertex="1" parent="1">
                    <mxGeometry x="650" y="445" width="120" height="105" as="geometry"/>
                </mxCell>
                <mxCell id="43" value="&lt;div&gt;Web UI&lt;/div&gt;" style="rounded=0;whiteSpace=wrap;html=1;" vertex="1" parent="1">
                    <mxGeometry x="650" y="705" width="120" height="105" as="geometry"/>
                </mxCell>
                <mxCell id="45" value="&lt;div&gt;CDN&lt;/div&gt;" style="rounded=0;whiteSpace=wrap;html=1;" vertex="1" parent="1">
                    <mxGeometry x="990" y="380" width="120" height="60" as="geometry"/>
                </mxCell>
                <mxCell id="46" value="&lt;div&gt;CDN&lt;/div&gt;" style="rounded=0;whiteSpace=wrap;html=1;" vertex="1" parent="1">
                    <mxGeometry x="990" y="450" width="120" height="60" as="geometry"/>
                </mxCell>
                <mxCell id="47" value="&lt;div&gt;CDN&lt;/div&gt;" style="rounded=0;whiteSpace=wrap;html=1;" vertex="1" parent="1">
                    <mxGeometry x="990" y="520" width="120" height="60" as="geometry"/>
                </mxCell>
                <mxCell id="48" value="&lt;div&gt;CDN&lt;/div&gt;" style="rounded=0;whiteSpace=wrap;html=1;" vertex="1" parent="1">
                    <mxGeometry x="990" y="620" width="120" height="60" as="geometry"/>
                </mxCell>
                <mxCell id="49" value="&lt;div&gt;CDN&lt;/div&gt;" style="rounded=0;whiteSpace=wrap;html=1;" vertex="1" parent="1">
                    <mxGeometry x="990" y="690" width="120" height="60" as="geometry"/>
                </mxCell>
                <mxCell id="50" value="&lt;div&gt;CDN&lt;/div&gt;" style="rounded=0;whiteSpace=wrap;html=1;" vertex="1" parent="1">
                    <mxGeometry x="990" y="760" width="120" height="60" as="geometry"/>
                </mxCell>
                <mxCell id="51" value="" style="endArrow=none;html=1;strokeWidth=1;entryX=0;entryY=0.5;entryDx=0;entryDy=0;exitX=1;exitY=0.5;exitDx=0;exitDy=0;" edge="1" parent="1" source="42" target="45">
                    <mxGeometry width="50" height="50" relative="1" as="geometry">
                        <mxPoint x="860" y="455" as="sourcePoint"/>
                        <mxPoint x="910" y="405" as="targetPoint"/>
                    </mxGeometry>
                </mxCell>
                <mxCell id="52" value="" style="endArrow=none;html=1;strokeWidth=1;entryX=0;entryY=0.5;entryDx=0;entryDy=0;exitX=1;exitY=0.5;exitDx=0;exitDy=0;" edge="1" parent="1" source="42" target="46">
                    <mxGeometry width="50" height="50" relative="1" as="geometry">
                        <mxPoint x="620" y="400" as="sourcePoint"/>
                        <mxPoint x="670" y="350" as="targetPoint"/>
                    </mxGeometry>
                </mxCell>
                <mxCell id="53" value="" style="endArrow=none;html=1;strokeWidth=1;entryX=0;entryY=0.5;entryDx=0;entryDy=0;exitX=1;exitY=0.5;exitDx=0;exitDy=0;" edge="1" parent="1" source="42" target="47">
                    <mxGeometry width="50" height="50" relative="1" as="geometry">
                        <mxPoint x="620" y="400" as="sourcePoint"/>
                        <mxPoint x="670" y="350" as="targetPoint"/>
                    </mxGeometry>
                </mxCell>
                <mxCell id="54" value="" style="endArrow=none;html=1;strokeWidth=1;entryX=0;entryY=0.5;entryDx=0;entryDy=0;exitX=1;exitY=0.5;exitDx=0;exitDy=0;" edge="1" parent="1" source="43" target="50">
                    <mxGeometry width="50" height="50" relative="1" as="geometry">
                        <mxPoint x="620" y="400" as="sourcePoint"/>
                        <mxPoint x="670" y="350" as="targetPoint"/>
                    </mxGeometry>
                </mxCell>
                <mxCell id="55" value="" style="endArrow=none;html=1;strokeWidth=1;entryX=0;entryY=0.5;entryDx=0;entryDy=0;exitX=1;exitY=0.5;exitDx=0;exitDy=0;" edge="1" parent="1" source="43" target="49">
                    <mxGeometry width="50" height="50" relative="1" as="geometry">
                        <mxPoint x="620" y="400" as="sourcePoint"/>
                        <mxPoint x="670" y="350" as="targetPoint"/>
                    </mxGeometry>
                </mxCell>
                <mxCell id="56" value="" style="endArrow=none;html=1;strokeWidth=1;entryX=0;entryY=0.5;entryDx=0;entryDy=0;exitX=1;exitY=0.5;exitDx=0;exitDy=0;" edge="1" parent="1" source="39" target="48">
                    <mxGeometry width="50" height="50" relative="1" as="geometry">
                        <mxPoint x="620" y="400" as="sourcePoint"/>
                        <mxPoint x="670" y="350" as="targetPoint"/>
                    </mxGeometry>
                </mxCell>
                <mxCell id="57" value="Concern:&lt;br&gt;cache busting" style="rounded=1;whiteSpace=wrap;html=1;align=left;" vertex="1" parent="1">
                    <mxGeometry x="1130" y="285" width="200" height="60" as="geometry"/>
                </mxCell>
                <mxCell id="58" value="Threat: XSS" style="rounded=1;whiteSpace=wrap;html=1;strokeWidth=1;" vertex="1" parent="1">
                    <mxGeometry x="615" y="-145" width="170" height="60" as="geometry"/>
                </mxCell>
                <mxCell id="59" value="" style="sketch=0;outlineConnect=0;fontColor=#232F3E;gradientColor=none;fillColor=#BF0816;strokeColor=none;dashed=0;verticalLabelPosition=bottom;verticalAlign=top;align=center;html=1;fontSize=12;fontStyle=0;aspect=fixed;pointerEvents=1;shape=mxgraph.aws4.waf_bad_bot;strokeWidth=1;" vertex="1" parent="1">
                    <mxGeometry x="595" y="-170" width="39.55" height="36" as="geometry"/>
                </mxCell>
                <mxCell id="60" value="Threat: malicious/insecure container images" style="rounded=1;whiteSpace=wrap;html=1;strokeWidth=1;" vertex="1" parent="1">
                    <mxGeometry x="20" y="-145" width="170" height="60" as="geometry"/>
                </mxCell>
                <mxCell id="61" value="" style="sketch=0;outlineConnect=0;fontColor=#232F3E;gradientColor=none;fillColor=#BF0816;strokeColor=none;dashed=0;verticalLabelPosition=bottom;verticalAlign=top;align=center;html=1;fontSize=12;fontStyle=0;aspect=fixed;pointerEvents=1;shape=mxgraph.aws4.waf_bad_bot;strokeWidth=1;" vertex="1" parent="1">
                    <mxGeometry y="-170" width="39.55" height="36" as="geometry"/>
                </mxCell>
                <mxCell id="62" value="RDBS&lt;br&gt;(postgres)" style="shape=cylinder3;whiteSpace=wrap;html=1;boundedLbl=1;backgroundOutline=1;size=15;" vertex="1" parent="1">
                    <mxGeometry x="-245" y="870" width="80" height="90" as="geometry"/>
                </mxCell>
                <mxCell id="63" value="logging" style="rounded=0;whiteSpace=wrap;html=1;" vertex="1" parent="1">
                    <mxGeometry x="-560" y="885" width="120" height="60" as="geometry"/>
                </mxCell>
                <mxCell id="64" value="" style="endArrow=classic;html=1;exitX=1;exitY=0.5;exitDx=0;exitDy=0;entryX=0;entryY=0.5;entryDx=0;entryDy=0;entryPerimeter=0;" edge="1" parent="1" source="63" target="62">
                    <mxGeometry width="50" height="50" relative="1" as="geometry">
                        <mxPoint x="-360" y="940" as="sourcePoint"/>
                        <mxPoint x="-310" y="890" as="targetPoint"/>
                    </mxGeometry>
                </mxCell>
                <mxCell id="65" value="SCA" style="rounded=1;whiteSpace=wrap;html=1;strokeWidth=1;" vertex="1" parent="1">
                    <mxGeometry x="-80" y="1510" width="120" height="60" as="geometry"/>
                </mxCell>
                <mxCell id="66" value="Concern:&lt;br&gt;Content-Security policy" style="rounded=1;whiteSpace=wrap;html=1;align=left;" vertex="1" parent="1">
                    <mxGeometry x="615" y="29" width="200" height="60" as="geometry"/>
                </mxCell>
                <mxCell id="67" value="Concern:&lt;br&gt;CORS" style="rounded=1;whiteSpace=wrap;html=1;align=left;" vertex="1" parent="1">
                    <mxGeometry x="35" y="20" width="200" height="60" as="geometry"/>
                </mxCell>
                <mxCell id="68" value="Concern:&lt;br&gt;WAF (network/host-based) since &quot;no cloud&quot;" style="rounded=1;whiteSpace=wrap;html=1;align=left;" vertex="1" parent="1">
                    <mxGeometry x="785" y="200" width="200" height="60" as="geometry"/>
                </mxCell>
                <mxCell id="69" value="WAF" style="rounded=0;whiteSpace=wrap;html=1;strokeWidth=1;dashed=1;" vertex="1" parent="1">
                    <mxGeometry x="815" y="355" width="120" height="60" as="geometry"/>
                </mxCell>
                <mxCell id="70" value="WAF" style="rounded=0;whiteSpace=wrap;html=1;strokeWidth=1;dashed=1;" vertex="1" parent="1">
                    <mxGeometry x="825" y="830" width="120" height="60" as="geometry"/>
                </mxCell>
            </root>
        </mxGraphModel>
    </diagram>
</mxfile>